<?xml version="1.0" encoding="utf-8" ?>
<svg xmlns="http://www.w3.org/2000/svg" xmlns:xlink="http://www.w3.org/1999/xlink" width="512" height="512">
	<defs>
		<linearGradient id="gradient_0" gradientUnits="userSpaceOnUse" x1="223.00345" y1="15.937233" x2="289.19907" y2="492.86829">
			<stop offset="0" stop-color="#89FC6D"/>
			<stop offset="1" stop-color="#0087B3"/>
		</linearGradient>
	</defs>
	<path fill="url(#gradient_0)" d="M99.0747 71.4637C135.886 37.9421 190.861 17.4151 240.304 14.1303C244.928 13.8231 249.668 13.9651 254.302 13.9592L271.286 14.0992C275.545 14.2951 279.803 15.035 284.041 15.5072C323.746 19.9312 359.068 33.2864 392 55.4921C417.689 72.8138 448.422 103.634 463.607 131.566C469.47 141.207 476.533 154.7 480.047 165.506C520.469 263.999 486.452 384.886 400.567 448.022C363.633 475.173 317.877 492.274 271.936 494.854L255.051 495C172.783 494.97 95.0117 453.448 51.4912 383.056C38.261 361.656 23.6647 328.522 20.3388 303.134C19.2377 299.268 18.8696 294.818 18.3499 290.83L15.6831 263.745L15.5463 249.368C15.544 245.017 15.4129 240.558 15.7868 236.223C17.2122 206.221 26.2031 175.645 39.2076 148.801C41.7239 143.607 44.364 137.994 47.6294 133.254C47.6664 132.843 48.2503 132.056 48.4812 131.649L52.0059 125.841C64.7274 105.697 80.3724 87.0714 98.6639 71.7622L99.0747 71.4637Z"/>
	<path fill="#EFEA5A" d="M367.338 175.029C372.023 175.545 376.604 177.008 380.956 178.786C434.151 200.514 418.791 266.608 367.334 271.758C366.819 268.898 366.878 265.614 367.26 262.737C371.837 261.417 375.971 260.441 380.33 258.33C398.993 249.295 409.308 226.756 399.782 207.5C393.458 194.715 380.505 187.711 367.487 183.279C366.749 181.551 366.634 176.793 367.338 175.029Z"/>
	<path fill="#048BA8" d="M367.298 183.279C380.505 187.711 393.458 194.715 399.782 207.5C409.308 226.756 398.993 249.295 380.33 258.33C375.971 260.441 371.837 261.417 367.26 262.737L367.298 183.279Z"/>
	<defs>
		<linearGradient id="gradient_1" gradientUnits="userSpaceOnUse" x1="302.90872" y1="333.13022" x2="394.53662" y2="113.20115">
			<stop offset="0" stop-color="#E5E326"/>
			<stop offset="1" stop-color="#FAEE83"/>
		</linearGradient>
	</defs>
	<path fill="url(#gradient_1)" d="M333.487 103.365C339.58 97.2015 347.355 94.2752 355.794 97.1644L356.13 97.2771C366.194 100.768 365.699 107.777 367.233 115.86L367.284 147.662L367.399 153.283L367.311 175.029C366.634 176.793 366.749 181.551 367.487 183.279L367.291 262.737C366.878 265.614 366.819 268.898 367.334 271.758L367.273 328.282C367.285 339.466 363.55 351.45 349.775 351.275C344.471 351.207 337.929 348.497 334.277 344.608L334.029 344.336C335.671 340.253 334.507 329.559 334.502 324.75L334.457 143.059C333.634 137.278 333.877 131.272 333.805 125.441L333.474 118.501C333.409 114.233 333.952 108.694 332.439 104.713L333.487 103.365Z"/>
	<path fill="#EFEA5A" d="M143.424 290.837L142.188 290.642C133.621 288.881 128.574 279.85 127.388 271.829C126.008 262.495 128.495 267.099 120.265 262.372C101.603 251.653 94.1309 233.903 98.895 212.695C101.968 199.013 116.685 190.957 127.603 183.997C127.334 175.074 131.464 165.375 140.967 163.015L141.375 162.918C144.166 162.205 147.334 162.592 150.208 162.598L221.019 162.602L221.263 291.119L199.529 289.732L154.686 289.732L147.156 290.204C145.925 290.329 144.587 290.394 143.424 290.837Z"/>
	<path fill="#048BA8" d="M127.093 194.625L127.304 256.401C125.094 254.225 120.463 251.498 117.422 248.918C114.626 246.63 111.447 243.41 110.2 239.972L110.032 239.5C109.691 238.561 109.35 237.692 109.28 236.688L109.004 223.887C109.023 212.192 110.547 209.057 119.644 201.111L127.093 194.625Z"/>
	<path fill="#B9E769" d="M326.762 110.165C328.746 108.741 330.674 106.441 332.439 104.713C333.952 108.694 333.409 114.233 333.474 118.501L333.805 125.441C333.877 131.272 333.634 137.278 334.49 143.059L334.502 324.75C334.507 329.559 335.671 340.253 334.029 344.336C327.288 337.726 311.56 327.633 303.375 322.999L271.393 307.524L258.486 302.287C257.357 317.1 246.625 332.433 231.339 334.786C226.155 335.584 221.039 335.688 215.861 336.783C217.574 342.269 219.441 347.869 222.822 352.592C227.373 358.95 234.033 361.584 235.717 370.03L235.808 370.5C236.369 373.309 236.345 375.994 235.641 378.777L235.518 379.25C232.944 389.374 223.839 395.736 213.502 395.872L194.439 395.901C165.039 395.883 157.954 391.844 153.832 362.17L147.048 319.004C145.402 309.72 143.507 300.294 143.434 290.852C144.587 290.394 145.925 290.329 147.156 290.204L154.686 289.809L199.529 289.727L221.25 291.004L221.057 162.407C244.118 158.378 260.855 152.017 281.94 141.316C297.497 134.313 314.596 121.708 326.762 110.165Z"/>
	<path fill="#0DB39E" d="M199.512 289.742L221.25 291.004C229.81 292.77 238.641 294.506 246.731 297.829C244.481 310.638 240.596 322.449 225.672 322.545L218.544 322.56C213.051 322.559 207.196 322.92 201.745 322.285C200.577 319.153 200.503 315.465 200.243 312.189L199.512 289.742Z"/>
	<path fill="#048BA8" d="M154.686 289.809L199.529 289.727L200.243 312.189C200.503 315.465 200.577 319.153 201.745 322.257C203.346 330.558 203.517 339.819 207.117 347.571C211.472 356.946 228.202 366.682 219.311 378.419C216.308 382.384 211.113 381.477 206.729 381.488L183.726 381.503C167.743 381.484 167.702 371.878 165.41 358.873L154.686 289.809Z"/>
</svg>
